<?xml version="1.0" encoding="utf-8"?>
<!-- Generator: Adobe Illustrator 25.4.1, SVG Export Plug-In . SVG Version: 6.00 Build 0)  -->
<svg version="1.1" id="Capa_1" xmlns="http://www.w3.org/2000/svg" xmlns:xlink="http://www.w3.org/1999/xlink" x="0px" y="0px"
	 viewBox="0 0 243.84 81.51" style="enable-background:new 0 0 243.84 81.51;" xml:space="preserve">
<g>
	<path d="M45.85,22.7c-0.05,0.05-0.11,0.17-0.18,0.36c-0.07,0.19-0.11,0.53-0.11,1.01c0,0.67,0.1,1.32,0.29,1.94v23.83
		c0,2.45-0.24,4.8-0.72,7.06c-0.48,2.26-1.31,4.26-2.48,6.01c-1.18,1.75-2.78,3.14-4.82,4.18c-2.04,1.03-4.64,1.55-7.81,1.55h-0.94
		c-2.74,0-4.96-0.37-6.66-1.12c-1.7-0.75-3.04-1.69-4-2.84c-0.96-1.15-1.61-2.41-1.94-3.78c-0.33-1.37-0.5-2.68-0.5-3.92
		c0-1.06,0.13-2.08,0.4-3.06c0.26-0.98,0.65-1.85,1.15-2.59c0.5-0.74,1.12-1.34,1.84-1.8c0.72-0.46,1.54-0.68,2.45-0.68
		c0.86,0,1.42,0.23,1.66,0.68c0.24,0.46,0.36,0.92,0.36,1.4c0,1.06-0.22,1.93-0.65,2.63c-0.43,0.7-0.9,1.31-1.4,1.84
		c-0.5,0.53-0.97,1.06-1.4,1.58c-0.43,0.53-0.65,1.18-0.65,1.94c0,2.3,0.77,3.96,2.3,4.97c1.54,1.01,3.46,1.51,5.76,1.51
		c2.02,0,3.77-0.41,5.26-1.22c1.49-0.82,2.72-1.85,3.71-3.1c0.98-1.25,1.72-2.6,2.2-4.07c0.48-1.46,0.72-2.84,0.72-4.14l-1.08,0.07
		c-1.73,0-3.23-0.4-4.5-1.19c-1.27-0.79-2.33-1.79-3.17-2.99c-0.84-1.2-1.46-2.5-1.87-3.89c-0.41-1.39-0.61-2.69-0.61-3.89v-2.52
		c0-0.91,0.12-1.98,0.36-3.2c0.24-1.22,0.58-2.5,1.01-3.82c0.43-1.32,0.96-2.62,1.58-3.89c0.62-1.27,1.3-2.41,2.02-3.42
		c0.72-1.01,1.49-1.82,2.3-2.45c0.82-0.62,1.66-0.94,2.52-0.94c0.34,0,0.72,0.07,1.15,0.22l5.04,0.36c0.34,0.05,0.66,0.17,0.97,0.36
		C45.7,21.88,45.85,22.22,45.85,22.7z M39.66,31.34c0.1-0.38,0.19-0.74,0.29-1.08c0.1-0.33,0.14-0.72,0.14-1.15
		c0-0.62-0.16-1.19-0.47-1.69c-0.31-0.5-0.88-0.76-1.69-0.76c-1.06,0-1.92,0.43-2.59,1.3c-0.67,0.86-1.19,1.9-1.55,3.1
		c-0.36,1.2-0.61,2.45-0.76,3.74s-0.22,2.35-0.22,3.17c0,0.62,0.05,1.52,0.14,2.7c0.1,1.18,0.32,2.34,0.68,3.49
		c0.36,1.15,0.86,2.16,1.51,3.02c0.65,0.86,1.52,1.3,2.63,1.3c0.1,0,0.37-0.02,0.83-0.07c0.46-0.05,0.8-0.12,1.04-0.22V31.34z"/>
	<path d="M62.34,50.06c-0.72,1.01-1.31,2.12-1.76,3.35c-0.46,1.22-0.85,2.5-1.19,3.82c-0.34,1.32-0.61,2.64-0.83,3.96
		c-0.22,1.32-0.44,2.58-0.68,3.78c-0.1,0.29-0.47,0.48-1.12,0.58c-0.65,0.1-1.12,0.14-1.4,0.14c-0.86,0-1.57-0.05-2.12-0.14
		c-0.55-0.1-0.97-0.32-1.26-0.68c-0.29-0.36-0.5-0.91-0.65-1.66c-0.14-0.74-0.26-1.74-0.36-2.99l0.94-21.38
		c0-0.62,0.34-0.94,1.01-0.94c0.24,0,0.58,0.04,1.01,0.11c0.43,0.07,0.89,0.18,1.37,0.32c0.48,0.14,0.89,0.32,1.22,0.54
		c0.34,0.22,0.5,0.47,0.5,0.76v14.62c0.05-0.05,0.12-0.24,0.22-0.58c0.33-0.86,0.74-1.93,1.22-3.2c0.48-1.27,1.01-2.48,1.58-3.64
		c0.58-1.15,1.19-2.14,1.84-2.95c0.65-0.82,1.31-1.22,1.98-1.22c0.86,0,1.52,0.2,1.98,0.61c0.46,0.41,0.8,0.92,1.04,1.55
		c0.24,0.62,0.38,1.3,0.43,2.02c0.05,0.72,0.07,1.42,0.07,2.09c0,0.48-0.05,1.27-0.14,2.38c-0.1,1.1-0.14,2.76-0.14,4.97
		c0,1.25,0.12,2.38,0.36,3.38c0.24,1.01,0.72,1.51,1.44,1.51c0.53,0,1.01-0.24,1.44-0.72c0.43-0.48,0.83-1.08,1.19-1.8
		c0.36-0.72,0.66-1.49,0.9-2.3c0.24-0.82,0.38-1.58,0.43-2.3c0.05-0.91,0.41-1.37,1.08-1.37c0.43,0,0.72,0.14,0.86,0.43
		s0.22,0.62,0.22,1.01v0.14c-0.05,0.96-0.23,2.04-0.54,3.24c-0.31,1.2-0.77,2.33-1.37,3.38c-0.6,1.06-1.38,1.94-2.34,2.66
		c-0.96,0.72-2.14,1.08-3.53,1.08c-2.16,0-3.54-0.78-4.14-2.34c-0.6-1.56-0.9-3.88-0.9-6.95L62.34,50.06z"/>
	<path d="M90.42,61.29c0,1.15-0.38,2.04-1.15,2.66c-0.77,0.62-1.65,1.08-2.63,1.37c-0.98,0.29-1.97,0.47-2.95,0.54
		c-0.98,0.07-1.69,0.11-2.12,0.11c-0.67,0-1.5-0.07-2.48-0.22c-0.98-0.14-1.94-0.37-2.88-0.68c-0.94-0.31-1.73-0.76-2.38-1.33
		c-0.65-0.58-0.97-1.3-0.97-2.16c0-0.53,0.2-0.9,0.61-1.12c0.41-0.22,0.8-0.32,1.19-0.32c0.53,0,1.04,0.19,1.55,0.58
		c0.5,0.38,1.03,0.79,1.58,1.22c0.55,0.43,1.16,0.84,1.84,1.22c0.67,0.38,1.44,0.58,2.3,0.58c0.38,0,0.9-0.13,1.55-0.4
		c0.65-0.26,0.97-0.73,0.97-1.4c0-0.67-0.28-1.32-0.83-1.94c-0.55-0.62-1.25-1.27-2.09-1.94c-0.84-0.67-1.74-1.37-2.7-2.09
		c-0.96-0.72-1.86-1.5-2.7-2.34c-0.84-0.84-1.54-1.76-2.09-2.77c-0.55-1.01-0.83-2.11-0.83-3.31c0-1.68,0.54-3.1,1.62-4.25
		c1.08-1.15,2.35-2.06,3.82-2.74c1.46-0.67,2.96-1.15,4.5-1.44c1.54-0.29,2.74-0.43,3.6-0.43c0.82,0,1.63,0.17,2.45,0.5
		c0.82,0.34,1.22,0.98,1.22,1.94c0,0.29-0.06,0.71-0.18,1.26c-0.12,0.55-0.31,1.09-0.58,1.62c-0.26,0.53-0.61,1-1.04,1.4
		c-0.43,0.41-0.98,0.61-1.66,0.61c-0.19,0-0.38-0.08-0.58-0.25c-0.19-0.17-0.41-0.36-0.65-0.58c-0.24-0.22-0.49-0.41-0.76-0.58
		c-0.26-0.17-0.56-0.25-0.9-0.25c-1.68,0-2.86,0.49-3.53,1.48c-0.67,0.98-1.01,2.03-1.01,3.13c0,0.96,0.56,1.97,1.69,3.02
		c1.13,1.06,2.38,2.11,3.74,3.17c1.37,1.06,2.62,2.1,3.74,3.13C89.85,59.33,90.42,60.33,90.42,61.29z"/>
	<path d="M92,52.72c0.05-2.45,0.12-4.94,0.22-7.49c0.1-2.54,0.19-4.9,0.29-7.06c0-0.38-0.38-0.65-1.15-0.79
		c-0.77-0.14-1.63-0.29-2.59-0.43c-0.96-0.14-1.82-0.37-2.59-0.68c-0.77-0.31-1.15-0.83-1.15-1.55c0-0.62,0.62-0.98,1.87-1.08
		c1.25-0.1,3.1-0.14,5.54-0.14c0.19,0,0.32-0.29,0.4-0.86c0.07-0.58,0.12-1.31,0.14-2.2c0.02-0.89,0.05-1.84,0.07-2.84
		c0.02-1.01,0.06-1.96,0.11-2.84c0.05-0.89,0.13-1.62,0.25-2.2c0.12-0.58,0.28-0.86,0.47-0.86c0.24,0,0.67,0.05,1.3,0.14
		c0.62,0.1,1.27,0.23,1.94,0.4c0.67,0.17,1.26,0.37,1.76,0.61c0.5,0.24,0.76,0.5,0.76,0.79l-0.79,9.36c0,0.29,0.25,0.49,0.76,0.61
		c0.5,0.12,1.15,0.19,1.94,0.22c0.79,0.02,1.63,0.04,2.52,0.04c0.89,0,1.73,0.07,2.52,0.22s1.44,0.37,1.94,0.68
		c0.5,0.31,0.76,0.78,0.76,1.4c0,0.1-0.05,0.25-0.14,0.47c-0.1,0.22-0.22,0.32-0.36,0.32c-0.1,0-0.23-0.07-0.4-0.22
		c-0.17-0.14-0.61-0.22-1.33-0.22c-0.19,0-0.72,0.02-1.58,0.07c-0.86,0.05-1.78,0.12-2.74,0.22c-0.96,0.1-1.84,0.2-2.63,0.32
		c-0.79,0.12-1.24,0.28-1.33,0.47c-0.05,0.1-0.11,0.66-0.18,1.69c-0.07,1.03-0.14,2.39-0.22,4.07c-0.07,1.68-0.13,3.61-0.18,5.8
		c-0.05,2.19-0.07,4.48-0.07,6.88c0,0.91,0.05,1.8,0.14,2.66c0.1,0.86,0.24,1.65,0.43,2.34c0.19,0.7,0.44,1.26,0.76,1.69
		c0.31,0.43,0.68,0.65,1.12,0.65c0.62,0,1.2-0.26,1.73-0.79c0.53-0.53,1.01-1.25,1.44-2.16c0.43-0.91,0.82-1.94,1.15-3.1
		c0.33-1.15,0.62-2.33,0.86-3.53c0.14-0.72,0.31-1.23,0.5-1.55c0.19-0.31,0.48-0.47,0.86-0.47c0.33,0,0.64,0.11,0.9,0.32
		c0.26,0.22,0.4,0.71,0.4,1.48c0,0.48-0.02,0.79-0.07,0.94c-0.14,0.86-0.42,2.05-0.83,3.56c-0.41,1.51-0.96,3-1.66,4.46
		c-0.7,1.46-1.55,2.75-2.56,3.85c-1.01,1.1-2.18,1.66-3.53,1.66c-1.3,0-2.42-0.37-3.38-1.12c-0.96-0.74-1.76-1.78-2.41-3.1
		c-0.65-1.32-1.14-2.88-1.48-4.68c-0.34-1.8-0.5-3.73-0.5-5.8V52.72z"/>
	<path d="M134.7,57.91c-0.1,0.67-0.34,1.46-0.72,2.38c-0.38,0.91-0.88,1.79-1.48,2.63c-0.6,0.84-1.3,1.55-2.09,2.12
		c-0.79,0.58-1.67,0.86-2.63,0.86c-1.44,0-2.7-0.55-3.78-1.66c-1.08-1.1-1.74-2.66-1.98-4.68c-0.29,0.77-0.62,1.66-1.01,2.66
		c-0.38,1.01-0.86,1.94-1.44,2.81c-0.58,0.86-1.24,1.6-1.98,2.2c-0.75,0.6-1.62,0.9-2.63,0.9c-0.29,0-0.5-0.02-0.65-0.07
		c-0.14-0.05-0.3-0.11-0.47-0.18c-0.17-0.07-0.36-0.13-0.58-0.18c-0.22-0.05-0.52-0.07-0.9-0.07c-1.15,0-2.12-0.37-2.92-1.12
		c-0.79-0.74-1.43-1.69-1.91-2.84c-0.48-1.15-0.83-2.41-1.04-3.78c-0.22-1.37-0.32-2.65-0.32-3.85c0-2.88,0.16-5.62,0.47-8.21
		c0.31-2.59,0.83-4.88,1.55-6.88c0.72-1.99,1.66-3.58,2.81-4.75c1.15-1.18,2.54-1.76,4.18-1.76c0.96,0,1.69,0.08,2.2,0.25
		c0.5,0.17,0.97,0.36,1.4,0.58c0.43,0.22,0.9,0.44,1.4,0.68c0.5,0.24,1.21,0.43,2.12,0.58c1.01,0.58,1.72,1.26,2.12,2.05
		c0.41,0.79,0.67,1.65,0.79,2.56c0.12,0.91,0.16,1.86,0.11,2.84c-0.05,0.98,0,1.96,0.14,2.92c0,0.05,0.11,0.12,0.32,0.22
		c0.22,0.1,0.47,0.2,0.76,0.32c0.29,0.12,0.54,0.29,0.76,0.5c0.22,0.22,0.32,0.49,0.32,0.83v0.29c-0.48,1.25-0.77,2.35-0.86,3.31
		c-0.1,0.96-0.14,2.11-0.14,3.46c0,0.67,0.04,1.4,0.11,2.2c0.07,0.79,0.19,1.54,0.36,2.23c0.17,0.7,0.42,1.27,0.76,1.73
		c0.34,0.46,0.77,0.68,1.3,0.68c0.58,0,1.09-0.29,1.55-0.86c0.46-0.58,0.84-1.24,1.15-1.98c0.31-0.74,0.58-1.5,0.79-2.27
		c0.22-0.77,0.35-1.34,0.4-1.73c0.1-0.58,0.34-0.86,0.72-0.86c0.24,0,0.47,0.13,0.68,0.4c0.22,0.26,0.32,0.73,0.32,1.4
		c0,0.19,0,0.37,0,0.54C134.77,57.46,134.75,57.67,134.7,57.91z M121.38,46.24c0-0.53-0.05-1.15-0.14-1.87
		c-0.1-0.72-0.26-1.39-0.5-2.02c-0.24-0.62-0.6-1.15-1.08-1.58c-0.48-0.43-1.13-0.65-1.94-0.65c-1.34,0-2.44,0.61-3.28,1.84
		c-0.84,1.22-1.5,2.66-1.98,4.32c-0.48,1.66-0.79,3.36-0.94,5.11c-0.14,1.75-0.22,3.13-0.22,4.14c0,0.77,0.04,1.69,0.11,2.77
		c0.07,1.08,0.2,2.1,0.4,3.06c0.19,0.96,0.47,1.78,0.83,2.45c0.36,0.67,0.83,1.01,1.4,1.01c1.39,0,2.46-0.54,3.2-1.62
		c0.74-1.08,1.31-2.42,1.69-4.03c0.38-1.61,0.66-3.34,0.83-5.18c0.17-1.85,0.32-3.54,0.47-5.08c0.1-0.82,0.31-1.33,0.65-1.55
		c0.34-0.22,0.5-0.37,0.5-0.47V46.24z"/>
	<path d="M167.03,50.42c0.05,0.1,0.07,0.2,0.07,0.32c0,0.12,0,0.21,0,0.25c0,0.43-0.41,0.77-1.22,1.01
		c-0.82,0.24-1.74,0.43-2.77,0.58c-1.03,0.14-2.06,0.25-3.1,0.32c-1.03,0.07-1.76,0.16-2.2,0.25c-0.34,2.83-0.68,5.18-1.04,7.06
		c-0.36,1.87-1.02,3.36-1.98,4.46c-0.96,1.1-2.34,1.88-4.14,2.34c-1.8,0.46-4.33,0.68-7.6,0.68c-1.2,0-2.46-0.22-3.78-0.65
		c-1.32-0.43-2.53-1.07-3.64-1.91c-1.1-0.84-2.03-1.88-2.77-3.13c-0.74-1.25-1.12-2.69-1.12-4.32c0-0.77,0.16-1.34,0.47-1.73
		c0.31-0.38,0.71-0.58,1.19-0.58c1.3,0,2.22,0.5,2.77,1.51c0.55,1.01,0.9,2.02,1.04,3.02c0.1,0.67,0.3,1.34,0.61,2.02
		c0.31,0.67,0.74,1.27,1.3,1.8c0.55,0.53,1.23,0.95,2.05,1.26c0.82,0.31,1.8,0.47,2.95,0.47c1.25,0,2.29-0.44,3.13-1.33
		c0.84-0.89,1.51-1.94,2.02-3.17s0.85-2.47,1.04-3.74c0.19-1.27,0.29-2.29,0.29-3.06c0-0.24,0-0.48,0-0.72
		c0-0.24-0.02-0.48-0.07-0.72c0-0.1-0.36-0.22-1.08-0.36c-0.72-0.14-1.51-0.28-2.38-0.4c-0.86-0.12-1.67-0.22-2.41-0.29
		c-0.75-0.07-1.16-0.11-1.26-0.11c-0.82,0.05-1.33,0.17-1.55,0.36c-0.22,0.19-0.47,0.29-0.76,0.29c-0.34,0-0.5-0.22-0.5-0.65
		c0-1.3,0.54-2.2,1.62-2.7c1.08-0.5,2.34-0.76,3.78-0.76h5.26c0.14,0,0.23-0.37,0.25-1.12c0.02-0.74,0.06-1.7,0.11-2.88
		c0.05-1.18,0.12-2.48,0.22-3.92c0.1-1.44,0.26-2.88,0.5-4.32c0.24-1.44,0.58-2.8,1.01-4.07c0.43-1.27,1.01-2.29,1.73-3.06
		c-1.01-0.19-2.3-0.41-3.89-0.65c-1.58-0.24-3.3-0.46-5.15-0.65c-1.85-0.19-3.73-0.36-5.65-0.5c-1.92-0.14-3.72-0.22-5.4-0.22
		c-0.29,0-0.68,0.02-1.19,0.07c-0.5,0.05-0.98,0.18-1.44,0.4c-0.46,0.22-0.85,0.53-1.19,0.94c-0.34,0.41-0.5,1-0.5,1.76
		c0,0.91,0.41,1.75,1.22,2.52c0.82,0.77,1.72,1.56,2.7,2.38c0.98,0.82,1.88,1.72,2.7,2.7c0.82,0.98,1.22,2.2,1.22,3.64
		c0,0.53-0.13,1.06-0.4,1.58c-0.26,0.53-0.73,0.79-1.4,0.79c-0.77,0-1.65-0.48-2.63-1.44c-0.98-0.96-1.92-2.14-2.81-3.53
		c-0.89-1.39-1.63-2.86-2.23-4.39c-0.6-1.54-0.9-2.9-0.9-4.1c0-1.44,0.29-2.63,0.86-3.56s1.86-1.68,3.85-2.23
		c1.99-0.55,4.92-0.92,8.78-1.12c3.86-0.19,9.08-0.29,15.66-0.29c1.44,0,2.53-0.07,3.28-0.22c0.74-0.14,1.24-0.22,1.48-0.22
		c0.24,0,0.61,0.36,1.12,1.08c0.5,0.72,1.16,1.92,1.98,3.6c0,0.24-0.29,0.42-0.86,0.54c-0.58,0.12-1.2,0.42-1.87,0.9
		c-1.06,0.72-1.9,1.82-2.52,3.31c-0.62,1.49-1.09,3.16-1.4,5c-0.31,1.85-0.5,3.76-0.58,5.72c-0.07,1.97-0.11,3.82-0.11,5.54
		c0,0.1,0.43,0.16,1.3,0.18c0.86,0.02,1.84,0.1,2.92,0.22c1.08,0.12,2.12,0.32,3.13,0.61C166.16,49.41,166.79,49.84,167.03,50.42z"
		/>
	<path d="M193.95,57.91c-0.1,0.67-0.34,1.46-0.72,2.38c-0.38,0.91-0.88,1.79-1.48,2.63c-0.6,0.84-1.29,1.55-2.09,2.12
		c-0.79,0.58-1.67,0.86-2.63,0.86c-1.44,0-2.7-0.55-3.78-1.66c-1.08-1.1-1.74-2.66-1.98-4.68c-0.29,0.77-0.62,1.66-1.01,2.66
		c-0.38,1.01-0.86,1.94-1.44,2.81c-0.58,0.86-1.24,1.6-1.98,2.2c-0.74,0.6-1.62,0.9-2.63,0.9c-0.29,0-0.5-0.02-0.65-0.07
		c-0.14-0.05-0.3-0.11-0.47-0.18c-0.17-0.07-0.36-0.13-0.57-0.18c-0.22-0.05-0.52-0.07-0.9-0.07c-1.15,0-2.12-0.37-2.92-1.12
		c-0.79-0.74-1.43-1.69-1.91-2.84c-0.48-1.15-0.83-2.41-1.04-3.78c-0.22-1.37-0.32-2.65-0.32-3.85c0-2.88,0.16-5.62,0.47-8.21
		c0.31-2.59,0.83-4.88,1.55-6.88c0.72-1.99,1.66-3.58,2.81-4.75c1.15-1.18,2.54-1.76,4.18-1.76c0.96,0,1.69,0.08,2.2,0.25
		c0.5,0.17,0.97,0.36,1.4,0.58c0.43,0.22,0.9,0.44,1.4,0.68c0.5,0.24,1.21,0.43,2.12,0.58c1.01,0.58,1.71,1.26,2.12,2.05
		c0.41,0.79,0.67,1.65,0.79,2.56c0.12,0.91,0.15,1.86,0.11,2.84c-0.05,0.98,0,1.96,0.14,2.92c0,0.05,0.11,0.12,0.32,0.22
		c0.22,0.1,0.47,0.2,0.76,0.32c0.29,0.12,0.54,0.29,0.76,0.5c0.22,0.22,0.32,0.49,0.32,0.83v0.29c-0.48,1.25-0.77,2.35-0.86,3.31
		c-0.1,0.96-0.14,2.11-0.14,3.46c0,0.67,0.04,1.4,0.11,2.2s0.19,1.54,0.36,2.23c0.17,0.7,0.42,1.27,0.76,1.73
		c0.33,0.46,0.77,0.68,1.29,0.68c0.58,0,1.09-0.29,1.55-0.86c0.46-0.58,0.84-1.24,1.15-1.98c0.31-0.74,0.58-1.5,0.79-2.27
		c0.22-0.77,0.35-1.34,0.4-1.73c0.1-0.58,0.33-0.86,0.72-0.86c0.24,0,0.47,0.13,0.69,0.4c0.21,0.26,0.32,0.73,0.32,1.4
		c0,0.19,0,0.37,0,0.54C194.02,57.46,194,57.67,193.95,57.91z M180.63,46.24c0-0.53-0.05-1.15-0.14-1.87
		c-0.1-0.72-0.26-1.39-0.5-2.02c-0.24-0.62-0.6-1.15-1.08-1.58c-0.48-0.43-1.13-0.65-1.94-0.65c-1.35,0-2.44,0.61-3.28,1.84
		s-1.5,2.66-1.98,4.32c-0.48,1.66-0.79,3.36-0.94,5.11c-0.14,1.75-0.21,3.13-0.21,4.14c0,0.77,0.04,1.69,0.11,2.77s0.2,2.1,0.4,3.06
		c0.19,0.96,0.47,1.78,0.83,2.45c0.36,0.67,0.83,1.01,1.4,1.01c1.39,0,2.46-0.54,3.2-1.62s1.31-2.42,1.69-4.03
		c0.38-1.61,0.66-3.34,0.83-5.18c0.17-1.85,0.32-3.54,0.47-5.08c0.1-0.82,0.31-1.33,0.65-1.55c0.33-0.22,0.5-0.37,0.5-0.47V46.24z"
		/>
	<path d="M216.49,49.34c0,0.38-0.07,1.16-0.22,2.34c-0.14,1.18-0.34,2.58-0.58,4.21c-0.19,0.91-0.44,1.97-0.76,3.17
		c-0.31,1.2-0.73,2.33-1.26,3.38c-0.53,1.06-1.19,1.96-1.98,2.7s-1.76,1.12-2.92,1.12c-1.15,0-2.1-0.22-2.84-0.65
		s-1.34-0.98-1.8-1.66c-0.46-0.67-0.84-1.39-1.15-2.16c-0.31-0.77-0.64-1.49-0.97-2.16c-0.34-0.67-0.75-1.22-1.22-1.66
		c-0.48-0.43-1.13-0.65-1.94-0.65h-0.94v4.32c0,0.72,0.06,1.6,0.18,2.63c0.12,1.03,0.28,1.96,0.47,2.77
		c-0.24,0.1-0.65,0.18-1.22,0.25c-0.58,0.07-0.98,0.11-1.22,0.11c-1.44,0-2.39-0.14-2.84-0.43c-0.46-0.29-0.68-1.1-0.68-2.45V20.97
		c0-0.67-0.06-1.21-0.18-1.62c-0.12-0.41-0.18-0.71-0.18-0.9c0-0.33,0.23-0.62,0.68-0.86c0.46-0.24,1.33-0.36,2.63-0.36
		c0.82,0,1.52,0.06,2.12,0.18c0.6,0.12,1.09,0.28,1.48,0.47c0.53,0.19,0.91,0.43,1.15,0.72c-0.29,1.2-0.54,2.81-0.76,4.82
		c-0.22,2.02-0.4,4.19-0.54,6.52c-0.14,2.33-0.25,4.66-0.32,6.98c-0.07,2.33-0.11,4.43-0.11,6.3c0.19-0.43,0.49-1.13,0.9-2.09
		c0.41-0.96,0.9-1.91,1.48-2.84c0.58-0.94,1.25-1.76,2.02-2.48c0.77-0.72,1.63-1.08,2.59-1.08c1.1,0,1.96,0.32,2.56,0.97
		c0.6,0.65,1.03,1.42,1.3,2.3c0.26,0.89,0.42,1.8,0.47,2.74s0.07,1.72,0.07,2.34c0,0.96-0.19,2.04-0.58,3.24
		c-0.38,1.2-0.92,2.38-1.62,3.53c-0.7,1.15-1.52,2.21-2.48,3.17c-0.96,0.96-1.99,1.68-3.1,2.16c0.77,0.24,1.5,0.62,2.2,1.15
		c0.7,0.53,1.31,1.27,1.84,2.23c0.24,0.38,0.43,0.82,0.58,1.3c0.14,0.48,0.31,0.94,0.5,1.37c0.19,0.43,0.43,0.79,0.72,1.08
		c0.29,0.29,0.7,0.43,1.22,0.43c0.72,0,1.33-0.36,1.84-1.08s0.94-1.69,1.3-2.92s0.67-2.65,0.94-4.28c0.26-1.63,0.52-3.34,0.76-5.11
		c0.1-0.67,0.26-1.12,0.5-1.33c0.24-0.22,0.48-0.32,0.72-0.32C216.08,47.68,216.49,48.23,216.49,49.34z M205.69,45.81
		c0.05-0.38,0.08-0.8,0.11-1.26c0.02-0.46,0.04-0.95,0.04-1.48c0-0.96-0.08-1.81-0.25-2.56c-0.17-0.74-0.52-1.12-1.04-1.12
		c-0.82,0-1.61,0.43-2.38,1.3c-0.77,0.86-1.45,1.96-2.05,3.28c-0.6,1.32-1.08,2.81-1.44,4.46c-0.36,1.66-0.54,3.28-0.54,4.86
		c0,0.19,0.05,0.35,0.14,0.47c0.1,0.12,0.38,0.18,0.86,0.18c0.86,0,1.67-0.23,2.41-0.68c0.74-0.46,1.4-1.07,1.98-1.84
		c0.58-0.77,1.06-1.64,1.44-2.63C205.35,47.81,205.59,46.82,205.69,45.81z"/>
	<path d="M234.99,54.67c0,1.2-0.22,2.54-0.65,4.03c-0.43,1.49-1.1,2.87-2.02,4.14c-0.91,1.27-2.08,2.34-3.49,3.2
		c-1.42,0.86-3.11,1.3-5.08,1.3c-1.87,0-3.46-0.34-4.75-1.01c-1.3-0.67-2.36-1.58-3.2-2.74c-0.84-1.15-1.44-2.51-1.8-4.07
		c-0.36-1.56-0.54-3.2-0.54-4.93c0-1.68,0.19-3.53,0.58-5.54c0.38-2.02,0.98-3.9,1.8-5.65c0.82-1.75,1.85-3.22,3.1-4.39
		c1.25-1.18,2.76-1.76,4.54-1.76c0.86,0,1.68,0.18,2.45,0.54c0.77,0.36,1.44,0.83,2.02,1.4c0.58,0.58,1.03,1.25,1.37,2.02
		c0.33,0.77,0.53,1.56,0.58,2.38l0.07,1.01c0,1.15-0.19,2.41-0.58,3.78c-0.38,1.37-0.94,2.64-1.66,3.82
		c-0.72,1.18-1.61,2.16-2.66,2.95c-1.06,0.79-2.26,1.19-3.6,1.19c-0.24,0-0.54-0.02-0.9-0.07c-0.36-0.05-0.71-0.12-1.04-0.22v2.09
		c0,0.34,0.11,0.82,0.32,1.44c0.22,0.62,0.54,1.24,0.97,1.84c0.43,0.6,1,1.13,1.69,1.58c0.7,0.46,1.55,0.68,2.56,0.68
		c1.39,0,2.53-0.28,3.42-0.83c0.89-0.55,1.62-1.26,2.2-2.12c0.58-0.86,1.02-1.84,1.33-2.92c0.31-1.08,0.56-2.12,0.76-3.13
		c0.14-0.67,0.29-1.13,0.43-1.37c0.14-0.24,0.38-0.36,0.72-0.36c0.72,0,1.08,0.41,1.08,1.22V54.67z M226.5,43.51
		c0-0.38-0.11-0.79-0.32-1.22c-0.22-0.43-0.61-0.65-1.19-0.65c-0.86,0-1.61,0.46-2.23,1.37c-0.62,0.91-1.14,1.96-1.55,3.13
		c-0.41,1.18-0.71,2.3-0.9,3.38c-0.19,1.08-0.29,1.79-0.29,2.12v0.22c0,0.43,0.04,0.78,0.11,1.04c0.07,0.26,0.32,0.4,0.76,0.4h0.36
		c0.96,0,1.77-0.36,2.45-1.08c0.67-0.72,1.21-1.58,1.62-2.59c0.41-1.01,0.71-2.04,0.9-3.1c0.19-1.06,0.29-1.92,0.29-2.59V43.51z"/>
</g>
</svg>
