<?xml version="1.0" encoding="utf-8"?>
<!-- Generator: Adobe Illustrator 25.4.1, SVG Export Plug-In . SVG Version: 6.00 Build 0)  -->
<svg version="1.1" id="Capa_1" xmlns="http://www.w3.org/2000/svg" xmlns:xlink="http://www.w3.org/1999/xlink" x="0px" y="0px"
	 viewBox="0 0 191.73 51.74" style="enable-background:new 0 0 191.73 51.74;" xml:space="preserve">
<g>
	<path d="M29.55,4.56c-0.04,0.04-0.09,0.14-0.15,0.3c-0.06,0.16-0.09,0.44-0.09,0.84c0,0.56,0.08,1.1,0.24,1.62v19.86
		c0,2.04-0.2,4-0.6,5.88c-0.4,1.88-1.09,3.55-2.07,5.01c-0.98,1.46-2.32,2.62-4.02,3.48c-1.7,0.86-3.87,1.29-6.51,1.29h-0.78
		c-2.28,0-4.13-0.31-5.55-0.93c-1.42-0.62-2.53-1.41-3.33-2.37s-1.34-2.01-1.62-3.15c-0.28-1.14-0.42-2.23-0.42-3.27
		c0-0.88,0.11-1.73,0.33-2.55c0.22-0.82,0.54-1.54,0.96-2.16c0.42-0.62,0.93-1.12,1.53-1.5c0.6-0.38,1.28-0.57,2.04-0.57
		c0.72,0,1.18,0.19,1.38,0.57c0.2,0.38,0.3,0.77,0.3,1.17c0,0.88-0.18,1.61-0.54,2.19c-0.36,0.58-0.75,1.09-1.17,1.53
		c-0.42,0.44-0.81,0.88-1.17,1.32c-0.36,0.44-0.54,0.98-0.54,1.62c0,1.92,0.64,3.3,1.92,4.14c1.28,0.84,2.88,1.26,4.8,1.26
		c1.68,0,3.14-0.34,4.38-1.02c1.24-0.68,2.27-1.54,3.09-2.58c0.82-1.04,1.43-2.17,1.83-3.39c0.4-1.22,0.6-2.37,0.6-3.45l-0.9,0.06
		c-1.44,0-2.69-0.33-3.75-0.99c-1.06-0.66-1.94-1.49-2.64-2.49c-0.7-1-1.22-2.08-1.56-3.24c-0.34-1.16-0.51-2.24-0.51-3.24v-2.1
		c0-0.76,0.1-1.65,0.3-2.67c0.2-1.02,0.48-2.08,0.84-3.18c0.36-1.1,0.8-2.18,1.32-3.24c0.52-1.06,1.08-2.01,1.68-2.85
		c0.6-0.84,1.24-1.52,1.92-2.04c0.68-0.52,1.38-0.78,2.1-0.78c0.28,0,0.6,0.06,0.96,0.18l4.2,0.3c0.28,0.04,0.55,0.14,0.81,0.3
		C29.42,3.88,29.55,4.16,29.55,4.56z M24.39,11.76c0.08-0.32,0.16-0.62,0.24-0.9c0.08-0.28,0.12-0.6,0.12-0.96
		c0-0.52-0.13-0.99-0.39-1.41c-0.26-0.42-0.73-0.63-1.41-0.63c-0.88,0-1.6,0.36-2.16,1.08c-0.56,0.72-0.99,1.58-1.29,2.58
		c-0.3,1-0.51,2.04-0.63,3.12c-0.12,1.08-0.18,1.96-0.18,2.64c0,0.52,0.04,1.27,0.12,2.25c0.08,0.98,0.27,1.95,0.57,2.91
		c0.3,0.96,0.72,1.8,1.26,2.52s1.27,1.08,2.19,1.08c0.08,0,0.31-0.02,0.69-0.06c0.38-0.04,0.67-0.1,0.87-0.18V11.76z"/>
	<path d="M43.29,27.36c-0.6,0.84-1.09,1.77-1.47,2.79c-0.38,1.02-0.71,2.08-0.99,3.18c-0.28,1.1-0.51,2.2-0.69,3.3
		c-0.18,1.1-0.37,2.15-0.57,3.15c-0.08,0.24-0.39,0.4-0.93,0.48c-0.54,0.08-0.93,0.12-1.17,0.12c-0.72,0-1.31-0.04-1.77-0.12
		c-0.46-0.08-0.81-0.27-1.05-0.57s-0.42-0.76-0.54-1.38c-0.12-0.62-0.22-1.45-0.3-2.49L34.59,18c0-0.52,0.28-0.78,0.84-0.78
		c0.2,0,0.48,0.03,0.84,0.09c0.36,0.06,0.74,0.15,1.14,0.27c0.4,0.12,0.74,0.27,1.02,0.45c0.28,0.18,0.42,0.39,0.42,0.63v12.18
		c0.04-0.04,0.1-0.2,0.18-0.48c0.28-0.72,0.62-1.61,1.02-2.67c0.4-1.06,0.84-2.07,1.32-3.03c0.48-0.96,0.99-1.78,1.53-2.46
		c0.54-0.68,1.09-1.02,1.65-1.02c0.72,0,1.27,0.17,1.65,0.51c0.38,0.34,0.67,0.77,0.87,1.29c0.2,0.52,0.32,1.08,0.36,1.68
		c0.04,0.6,0.06,1.18,0.06,1.74c0,0.4-0.04,1.06-0.12,1.98c-0.08,0.92-0.12,2.3-0.12,4.14c0,1.04,0.1,1.98,0.3,2.82
		c0.2,0.84,0.6,1.26,1.2,1.26c0.44,0,0.84-0.2,1.2-0.6c0.36-0.4,0.69-0.9,0.99-1.5s0.55-1.24,0.75-1.92
		c0.2-0.68,0.32-1.32,0.36-1.92c0.04-0.76,0.34-1.14,0.9-1.14c0.36,0,0.6,0.12,0.72,0.36c0.12,0.24,0.18,0.52,0.18,0.84v0.12
		c-0.04,0.8-0.19,1.7-0.45,2.7c-0.26,1-0.64,1.94-1.14,2.82c-0.5,0.88-1.15,1.62-1.95,2.22c-0.8,0.6-1.78,0.9-2.94,0.9
		c-1.8,0-2.95-0.65-3.45-1.95c-0.5-1.3-0.75-3.23-0.75-5.79L43.29,27.36z"/>
	<path d="M66.69,36.72c0,0.96-0.32,1.7-0.96,2.22c-0.64,0.52-1.37,0.9-2.19,1.14c-0.82,0.24-1.64,0.39-2.46,0.45
		c-0.82,0.06-1.41,0.09-1.77,0.09c-0.56,0-1.25-0.06-2.07-0.18c-0.82-0.12-1.62-0.31-2.4-0.57c-0.78-0.26-1.44-0.63-1.98-1.11
		s-0.81-1.08-0.81-1.8c0-0.44,0.17-0.75,0.51-0.93c0.34-0.18,0.67-0.27,0.99-0.27c0.44,0,0.87,0.16,1.29,0.48
		c0.42,0.32,0.86,0.66,1.32,1.02c0.46,0.36,0.97,0.7,1.53,1.02c0.56,0.32,1.2,0.48,1.92,0.48c0.32,0,0.75-0.11,1.29-0.33
		c0.54-0.22,0.81-0.61,0.81-1.17c0-0.56-0.23-1.1-0.69-1.62c-0.46-0.52-1.04-1.06-1.74-1.62c-0.7-0.56-1.45-1.14-2.25-1.74
		c-0.8-0.6-1.55-1.25-2.25-1.95c-0.7-0.7-1.28-1.47-1.74-2.31c-0.46-0.84-0.69-1.76-0.69-2.76c0-1.4,0.45-2.58,1.35-3.54
		c0.9-0.96,1.96-1.72,3.18-2.28c1.22-0.56,2.47-0.96,3.75-1.2c1.28-0.24,2.28-0.36,3-0.36c0.68,0,1.36,0.14,2.04,0.42
		c0.68,0.28,1.02,0.82,1.02,1.62c0,0.24-0.05,0.59-0.15,1.05c-0.1,0.46-0.26,0.91-0.48,1.35c-0.22,0.44-0.51,0.83-0.87,1.17
		C64.83,23.83,64.37,24,63.81,24c-0.16,0-0.32-0.07-0.48-0.21c-0.16-0.14-0.34-0.3-0.54-0.48c-0.2-0.18-0.41-0.34-0.63-0.48
		c-0.22-0.14-0.47-0.21-0.75-0.21c-1.4,0-2.38,0.41-2.94,1.23c-0.56,0.82-0.84,1.69-0.84,2.61c0,0.8,0.47,1.64,1.41,2.52
		c0.94,0.88,1.98,1.76,3.12,2.64c1.14,0.88,2.18,1.75,3.12,2.61C66.22,35.09,66.69,35.92,66.69,36.72z"/>
	<path d="M68.01,29.58c0.04-2.04,0.1-4.12,0.18-6.24c0.08-2.12,0.16-4.08,0.24-5.88c0-0.32-0.32-0.54-0.96-0.66
		c-0.64-0.12-1.36-0.24-2.16-0.36c-0.8-0.12-1.52-0.31-2.16-0.57c-0.64-0.26-0.96-0.69-0.96-1.29c0-0.52,0.52-0.82,1.56-0.9
		c1.04-0.08,2.58-0.12,4.62-0.12c0.16,0,0.27-0.24,0.33-0.72s0.1-1.09,0.12-1.83c0.02-0.74,0.04-1.53,0.06-2.37
		c0.02-0.84,0.05-1.63,0.09-2.37c0.04-0.74,0.11-1.35,0.21-1.83c0.1-0.48,0.23-0.72,0.39-0.72c0.2,0,0.56,0.04,1.08,0.12
		c0.52,0.08,1.06,0.19,1.62,0.33c0.56,0.14,1.05,0.31,1.47,0.51c0.42,0.2,0.63,0.42,0.63,0.66l-0.66,7.8c0,0.24,0.21,0.41,0.63,0.51
		c0.42,0.1,0.96,0.16,1.62,0.18c0.66,0.02,1.36,0.03,2.1,0.03c0.74,0,1.44,0.06,2.1,0.18c0.66,0.12,1.2,0.31,1.62,0.57
		c0.42,0.26,0.63,0.65,0.63,1.17c0,0.08-0.04,0.21-0.12,0.39c-0.08,0.18-0.18,0.27-0.3,0.27c-0.08,0-0.19-0.06-0.33-0.18
		c-0.14-0.12-0.51-0.18-1.11-0.18c-0.16,0-0.6,0.02-1.32,0.06c-0.72,0.04-1.48,0.1-2.28,0.18c-0.8,0.08-1.53,0.17-2.19,0.27
		c-0.66,0.1-1.03,0.23-1.11,0.39c-0.04,0.08-0.09,0.55-0.15,1.41c-0.06,0.86-0.12,1.99-0.18,3.39c-0.06,1.4-0.11,3.01-0.15,4.83
		c-0.04,1.82-0.06,3.73-0.06,5.73c0,0.76,0.04,1.5,0.12,2.22c0.08,0.72,0.2,1.37,0.36,1.95c0.16,0.58,0.37,1.05,0.63,1.41
		c0.26,0.36,0.57,0.54,0.93,0.54c0.52,0,1-0.22,1.44-0.66c0.44-0.44,0.84-1.04,1.2-1.8c0.36-0.76,0.68-1.62,0.96-2.58
		c0.28-0.96,0.52-1.94,0.72-2.94c0.12-0.6,0.26-1.03,0.42-1.29c0.16-0.26,0.4-0.39,0.72-0.39c0.28,0,0.53,0.09,0.75,0.27
		c0.22,0.18,0.33,0.59,0.33,1.23c0,0.4-0.02,0.66-0.06,0.78c-0.12,0.72-0.35,1.71-0.69,2.97c-0.34,1.26-0.8,2.5-1.38,3.72
		c-0.58,1.22-1.29,2.29-2.13,3.21c-0.84,0.92-1.82,1.38-2.94,1.38c-1.08,0-2.02-0.31-2.82-0.93c-0.8-0.62-1.47-1.48-2.01-2.58
		c-0.54-1.1-0.95-2.4-1.23-3.9c-0.28-1.5-0.42-3.11-0.42-4.83V29.58z"/>
	<path d="M103.59,33.9c-0.08,0.56-0.28,1.22-0.6,1.98c-0.32,0.76-0.73,1.49-1.23,2.19c-0.5,0.7-1.08,1.29-1.74,1.77
		c-0.66,0.48-1.39,0.72-2.19,0.72c-1.2,0-2.25-0.46-3.15-1.38c-0.9-0.92-1.45-2.22-1.65-3.9c-0.24,0.64-0.52,1.38-0.84,2.22
		c-0.32,0.84-0.72,1.62-1.2,2.34c-0.48,0.72-1.03,1.33-1.65,1.83c-0.62,0.5-1.35,0.75-2.19,0.75c-0.24,0-0.42-0.02-0.54-0.06
		c-0.12-0.04-0.25-0.09-0.39-0.15c-0.14-0.06-0.3-0.11-0.48-0.15C85.56,42.02,85.31,42,84.99,42c-0.96,0-1.77-0.31-2.43-0.93
		c-0.66-0.62-1.19-1.41-1.59-2.37c-0.4-0.96-0.69-2.01-0.87-3.15c-0.18-1.14-0.27-2.21-0.27-3.21c0-2.4,0.13-4.68,0.39-6.84
		c0.26-2.16,0.69-4.07,1.29-5.73c0.6-1.66,1.38-2.98,2.34-3.96c0.96-0.98,2.12-1.47,3.48-1.47c0.8,0,1.41,0.07,1.83,0.21
		c0.42,0.14,0.81,0.3,1.17,0.48c0.36,0.18,0.75,0.37,1.17,0.57c0.42,0.2,1.01,0.36,1.77,0.48c0.84,0.48,1.43,1.05,1.77,1.71
		c0.34,0.66,0.56,1.37,0.66,2.13c0.1,0.76,0.13,1.55,0.09,2.37c-0.04,0.82,0,1.63,0.12,2.43c0,0.04,0.09,0.1,0.27,0.18
		c0.18,0.08,0.39,0.17,0.63,0.27c0.24,0.1,0.45,0.24,0.63,0.42c0.18,0.18,0.27,0.41,0.27,0.69v0.24c-0.4,1.04-0.64,1.96-0.72,2.76
		c-0.08,0.8-0.12,1.76-0.12,2.88c0,0.56,0.03,1.17,0.09,1.83c0.06,0.66,0.16,1.28,0.3,1.86c0.14,0.58,0.35,1.06,0.63,1.44
		c0.28,0.38,0.64,0.57,1.08,0.57c0.48,0,0.91-0.24,1.29-0.72c0.38-0.48,0.7-1.03,0.96-1.65c0.26-0.62,0.48-1.25,0.66-1.89
		c0.18-0.64,0.29-1.12,0.33-1.44c0.08-0.48,0.28-0.72,0.6-0.72c0.2,0,0.39,0.11,0.57,0.33c0.18,0.22,0.27,0.61,0.27,1.17
		c0,0.16,0,0.31,0,0.45C103.65,33.53,103.63,33.7,103.59,33.9z M92.49,24.18c0-0.44-0.04-0.96-0.12-1.56
		c-0.08-0.6-0.22-1.16-0.42-1.68c-0.2-0.52-0.5-0.96-0.9-1.32c-0.4-0.36-0.94-0.54-1.62-0.54c-1.12,0-2.03,0.51-2.73,1.53
		c-0.7,1.02-1.25,2.22-1.65,3.6c-0.4,1.38-0.66,2.8-0.78,4.26c-0.12,1.46-0.18,2.61-0.18,3.45c0,0.64,0.03,1.41,0.09,2.31
		s0.17,1.75,0.33,2.55c0.16,0.8,0.39,1.48,0.69,2.04c0.3,0.56,0.69,0.84,1.17,0.84c1.16,0,2.05-0.45,2.67-1.35
		c0.62-0.9,1.09-2.02,1.41-3.36c0.32-1.34,0.55-2.78,0.69-4.32c0.14-1.54,0.27-2.95,0.39-4.23c0.08-0.68,0.26-1.11,0.54-1.29
		c0.28-0.18,0.42-0.31,0.42-0.39V24.18z"/>
	<path d="M130.53,27.66c0.04,0.08,0.06,0.17,0.06,0.27c0,0.1,0,0.17,0,0.21c0,0.36-0.34,0.64-1.02,0.84
		c-0.68,0.2-1.45,0.36-2.31,0.48c-0.86,0.12-1.72,0.21-2.58,0.27c-0.86,0.06-1.47,0.13-1.83,0.21c-0.28,2.36-0.57,4.32-0.87,5.88
		s-0.85,2.8-1.65,3.72c-0.8,0.92-1.95,1.57-3.45,1.95c-1.5,0.38-3.61,0.57-6.33,0.57c-1,0-2.05-0.18-3.15-0.54
		c-1.1-0.36-2.11-0.89-3.03-1.59c-0.92-0.7-1.69-1.57-2.31-2.61c-0.62-1.04-0.93-2.24-0.93-3.6c0-0.64,0.13-1.12,0.39-1.44
		c0.26-0.32,0.59-0.48,0.99-0.48c1.08,0,1.85,0.42,2.31,1.26c0.46,0.84,0.75,1.68,0.87,2.52c0.08,0.56,0.25,1.12,0.51,1.68
		c0.26,0.56,0.62,1.06,1.08,1.5c0.46,0.44,1.03,0.79,1.71,1.05c0.68,0.26,1.5,0.39,2.46,0.39c1.04,0,1.91-0.37,2.61-1.11
		c0.7-0.74,1.26-1.62,1.68-2.64c0.42-1.02,0.71-2.06,0.87-3.12c0.16-1.06,0.24-1.91,0.24-2.55c0-0.2,0-0.4,0-0.6
		c0-0.2-0.02-0.4-0.06-0.6c0-0.08-0.3-0.18-0.9-0.3c-0.6-0.12-1.26-0.23-1.98-0.33c-0.72-0.1-1.39-0.18-2.01-0.24
		c-0.62-0.06-0.97-0.09-1.05-0.09c-0.68,0.04-1.11,0.14-1.29,0.3c-0.18,0.16-0.39,0.24-0.63,0.24c-0.28,0-0.42-0.18-0.42-0.54
		c0-1.08,0.45-1.83,1.35-2.25c0.9-0.42,1.95-0.63,3.15-0.63h4.38c0.12,0,0.19-0.31,0.21-0.93c0.02-0.62,0.05-1.42,0.09-2.4
		c0.04-0.98,0.1-2.07,0.18-3.27c0.08-1.2,0.22-2.4,0.42-3.6c0.2-1.2,0.48-2.33,0.84-3.39c0.36-1.06,0.84-1.91,1.44-2.55
		c-0.84-0.16-1.92-0.34-3.24-0.54c-1.32-0.2-2.75-0.38-4.29-0.54c-1.54-0.16-3.11-0.3-4.71-0.42c-1.6-0.12-3.1-0.18-4.5-0.18
		c-0.24,0-0.57,0.02-0.99,0.06c-0.42,0.04-0.82,0.15-1.2,0.33c-0.38,0.18-0.71,0.44-0.99,0.78c-0.28,0.34-0.42,0.83-0.42,1.47
		c0,0.76,0.34,1.46,1.02,2.1c0.68,0.64,1.43,1.3,2.25,1.98c0.82,0.68,1.57,1.43,2.25,2.25c0.68,0.82,1.02,1.83,1.02,3.03
		c0,0.44-0.11,0.88-0.33,1.32c-0.22,0.44-0.61,0.66-1.17,0.66c-0.64,0-1.37-0.4-2.19-1.2c-0.82-0.8-1.6-1.78-2.34-2.94
		c-0.74-1.16-1.36-2.38-1.86-3.66c-0.5-1.28-0.75-2.42-0.75-3.42c0-1.2,0.24-2.19,0.72-2.97s1.55-1.4,3.21-1.86
		c1.66-0.46,4.1-0.77,7.32-0.93c3.22-0.16,7.57-0.24,13.05-0.24c1.2,0,2.11-0.06,2.73-0.18s1.03-0.18,1.23-0.18
		c0.2,0,0.51,0.3,0.93,0.9c0.42,0.6,0.97,1.6,1.65,3c0,0.2-0.24,0.35-0.72,0.45c-0.48,0.1-1,0.35-1.56,0.75
		c-0.88,0.6-1.58,1.52-2.1,2.76c-0.52,1.24-0.91,2.63-1.17,4.17c-0.26,1.54-0.42,3.13-0.48,4.77c-0.06,1.64-0.09,3.18-0.09,4.62
		c0,0.08,0.36,0.13,1.08,0.15c0.72,0.02,1.53,0.08,2.43,0.18c0.9,0.1,1.77,0.27,2.61,0.51C129.81,26.82,130.33,27.18,130.53,27.66z"
		/>
	<path d="M152.97,33.9c-0.08,0.56-0.28,1.22-0.6,1.98c-0.32,0.76-0.73,1.49-1.23,2.19c-0.5,0.7-1.08,1.29-1.74,1.77
		c-0.66,0.48-1.39,0.72-2.19,0.72c-1.2,0-2.25-0.46-3.15-1.38c-0.9-0.92-1.45-2.22-1.65-3.9c-0.24,0.64-0.52,1.38-0.84,2.22
		c-0.32,0.84-0.72,1.62-1.2,2.34c-0.48,0.72-1.03,1.33-1.65,1.83c-0.62,0.5-1.35,0.75-2.19,0.75c-0.24,0-0.42-0.02-0.54-0.06
		c-0.12-0.04-0.25-0.09-0.39-0.15c-0.14-0.06-0.3-0.11-0.48-0.15c-0.18-0.04-0.43-0.06-0.75-0.06c-0.96,0-1.77-0.31-2.43-0.93
		c-0.66-0.62-1.19-1.41-1.59-2.37c-0.4-0.96-0.69-2.01-0.87-3.15c-0.18-1.14-0.27-2.21-0.27-3.21c0-2.4,0.13-4.68,0.39-6.84
		c0.26-2.16,0.69-4.07,1.29-5.73c0.6-1.66,1.38-2.98,2.34-3.96c0.96-0.98,2.12-1.47,3.48-1.47c0.8,0,1.41,0.07,1.83,0.21
		c0.42,0.14,0.81,0.3,1.17,0.48c0.36,0.18,0.75,0.37,1.17,0.57c0.42,0.2,1.01,0.36,1.77,0.48c0.84,0.48,1.43,1.05,1.77,1.71
		c0.34,0.66,0.56,1.37,0.66,2.13c0.1,0.76,0.13,1.55,0.09,2.37c-0.04,0.82,0,1.63,0.12,2.43c0,0.04,0.09,0.1,0.27,0.18
		c0.18,0.08,0.39,0.17,0.63,0.27c0.24,0.1,0.45,0.24,0.63,0.42c0.18,0.18,0.27,0.41,0.27,0.69v0.24c-0.4,1.04-0.64,1.96-0.72,2.76
		c-0.08,0.8-0.12,1.76-0.12,2.88c0,0.56,0.03,1.17,0.09,1.83c0.06,0.66,0.16,1.28,0.3,1.86c0.14,0.58,0.35,1.06,0.63,1.44
		c0.28,0.38,0.64,0.57,1.08,0.57c0.48,0,0.91-0.24,1.29-0.72s0.7-1.03,0.96-1.65c0.26-0.62,0.48-1.25,0.66-1.89
		c0.18-0.64,0.29-1.12,0.33-1.44c0.08-0.48,0.28-0.72,0.6-0.72c0.2,0,0.39,0.11,0.57,0.33c0.18,0.22,0.27,0.61,0.27,1.17
		c0,0.16,0,0.31,0,0.45C153.03,33.53,153.01,33.7,152.97,33.9z M141.87,24.18c0-0.44-0.04-0.96-0.12-1.56
		c-0.08-0.6-0.22-1.16-0.42-1.68c-0.2-0.52-0.5-0.96-0.9-1.32c-0.4-0.36-0.94-0.54-1.62-0.54c-1.12,0-2.03,0.51-2.73,1.53
		c-0.7,1.02-1.25,2.22-1.65,3.6c-0.4,1.38-0.66,2.8-0.78,4.26c-0.12,1.46-0.18,2.61-0.18,3.45c0,0.64,0.03,1.41,0.09,2.31
		c0.06,0.9,0.17,1.75,0.33,2.55c0.16,0.8,0.39,1.48,0.69,2.04c0.3,0.56,0.69,0.84,1.17,0.84c1.16,0,2.05-0.45,2.67-1.35
		c0.62-0.9,1.09-2.02,1.41-3.36c0.32-1.34,0.55-2.78,0.69-4.32c0.14-1.54,0.27-2.95,0.39-4.23c0.08-0.68,0.26-1.11,0.54-1.29
		c0.28-0.18,0.42-0.31,0.42-0.39V24.18z"/>
	<path d="M171.75,26.76c0,0.32-0.06,0.97-0.18,1.95c-0.12,0.98-0.28,2.15-0.48,3.51c-0.16,0.76-0.37,1.64-0.63,2.64
		c-0.26,1-0.61,1.94-1.05,2.82c-0.44,0.88-0.99,1.63-1.65,2.25c-0.66,0.62-1.47,0.93-2.43,0.93s-1.75-0.18-2.37-0.54
		c-0.62-0.36-1.12-0.82-1.5-1.38c-0.38-0.56-0.7-1.16-0.96-1.8c-0.26-0.64-0.53-1.24-0.81-1.8c-0.28-0.56-0.62-1.02-1.02-1.38
		c-0.4-0.36-0.94-0.54-1.62-0.54h-0.78v3.6c0,0.6,0.05,1.33,0.15,2.19c0.1,0.86,0.23,1.63,0.39,2.31c-0.2,0.08-0.54,0.15-1.02,0.21
		c-0.48,0.06-0.82,0.09-1.02,0.09c-1.2,0-1.99-0.12-2.37-0.36c-0.38-0.24-0.57-0.92-0.57-2.04V3.12c0-0.56-0.05-1.01-0.15-1.35
		c-0.1-0.34-0.15-0.59-0.15-0.75c0-0.28,0.19-0.52,0.57-0.72c0.38-0.2,1.11-0.3,2.19-0.3c0.68,0,1.27,0.05,1.77,0.15
		c0.5,0.1,0.91,0.23,1.23,0.39c0.44,0.16,0.76,0.36,0.96,0.6c-0.24,1-0.45,2.34-0.63,4.02c-0.18,1.68-0.33,3.49-0.45,5.43
		c-0.12,1.94-0.21,3.88-0.27,5.82c-0.06,1.94-0.09,3.69-0.09,5.25c0.16-0.36,0.41-0.94,0.75-1.74c0.34-0.8,0.75-1.59,1.23-2.37
		c0.48-0.78,1.04-1.47,1.68-2.07s1.36-0.9,2.16-0.9c0.92,0,1.63,0.27,2.13,0.81s0.86,1.18,1.08,1.92c0.22,0.74,0.35,1.5,0.39,2.28
		c0.04,0.78,0.06,1.43,0.06,1.95c0,0.8-0.16,1.7-0.48,2.7c-0.32,1-0.77,1.98-1.35,2.94c-0.58,0.96-1.27,1.84-2.07,2.64
		c-0.8,0.8-1.66,1.4-2.58,1.8c0.64,0.2,1.25,0.52,1.83,0.96c0.58,0.44,1.09,1.06,1.53,1.86c0.2,0.32,0.36,0.68,0.48,1.08
		c0.12,0.4,0.26,0.78,0.42,1.14c0.16,0.36,0.36,0.66,0.6,0.9c0.24,0.24,0.58,0.36,1.02,0.36c0.6,0,1.11-0.3,1.53-0.9
		c0.42-0.6,0.78-1.41,1.08-2.43c0.3-1.02,0.56-2.21,0.78-3.57c0.22-1.36,0.43-2.78,0.63-4.26c0.08-0.56,0.22-0.93,0.42-1.11
		s0.4-0.27,0.6-0.27C171.41,25.38,171.75,25.84,171.75,26.76z M162.75,23.82c0.04-0.32,0.07-0.67,0.09-1.05
		c0.02-0.38,0.03-0.79,0.03-1.23c0-0.8-0.07-1.51-0.21-2.13c-0.14-0.62-0.43-0.93-0.87-0.93c-0.68,0-1.34,0.36-1.98,1.08
		c-0.64,0.72-1.21,1.63-1.71,2.73c-0.5,1.1-0.9,2.34-1.2,3.72c-0.3,1.38-0.45,2.73-0.45,4.05c0,0.16,0.04,0.29,0.12,0.39
		c0.08,0.1,0.32,0.15,0.72,0.15c0.72,0,1.39-0.19,2.01-0.57c0.62-0.38,1.17-0.89,1.65-1.53c0.48-0.64,0.88-1.37,1.2-2.19
		C162.47,25.49,162.67,24.66,162.75,23.82z"/>
	<path d="M187.17,31.2c0,1-0.18,2.12-0.54,3.36c-0.36,1.24-0.92,2.39-1.68,3.45c-0.76,1.06-1.73,1.95-2.91,2.67
		c-1.18,0.72-2.59,1.08-4.23,1.08c-1.56,0-2.88-0.28-3.96-0.84s-1.97-1.32-2.67-2.28c-0.7-0.96-1.2-2.09-1.5-3.39
		c-0.3-1.3-0.45-2.67-0.45-4.11c0-1.4,0.16-2.94,0.48-4.62c0.32-1.68,0.82-3.25,1.5-4.71c0.68-1.46,1.54-2.68,2.58-3.66
		c1.04-0.98,2.3-1.47,3.78-1.47c0.72,0,1.4,0.15,2.04,0.45c0.64,0.3,1.2,0.69,1.68,1.17c0.48,0.48,0.86,1.04,1.14,1.68
		c0.28,0.64,0.44,1.3,0.48,1.98l0.06,0.84c0,0.96-0.16,2.01-0.48,3.15c-0.32,1.14-0.78,2.2-1.38,3.18c-0.6,0.98-1.34,1.8-2.22,2.46
		c-0.88,0.66-1.88,0.99-3,0.99c-0.2,0-0.45-0.02-0.75-0.06c-0.3-0.04-0.59-0.1-0.87-0.18v1.74c0,0.28,0.09,0.68,0.27,1.2
		c0.18,0.52,0.45,1.03,0.81,1.53c0.36,0.5,0.83,0.94,1.41,1.32c0.58,0.38,1.29,0.57,2.13,0.57c1.16,0,2.11-0.23,2.85-0.69
		c0.74-0.46,1.35-1.05,1.83-1.77c0.48-0.72,0.85-1.53,1.11-2.43c0.26-0.9,0.47-1.77,0.63-2.61c0.12-0.56,0.24-0.94,0.36-1.14
		c0.12-0.2,0.32-0.3,0.6-0.3c0.6,0,0.9,0.34,0.9,1.02V31.2z M180.09,21.9c0-0.32-0.09-0.66-0.27-1.02
		c-0.18-0.36-0.51-0.54-0.99-0.54c-0.72,0-1.34,0.38-1.86,1.14c-0.52,0.76-0.95,1.63-1.29,2.61c-0.34,0.98-0.59,1.92-0.75,2.82
		c-0.16,0.9-0.24,1.49-0.24,1.77v0.18c0,0.36,0.03,0.65,0.09,0.87c0.06,0.22,0.27,0.33,0.63,0.33h0.3c0.8,0,1.48-0.3,2.04-0.9
		c0.56-0.6,1.01-1.32,1.35-2.16c0.34-0.84,0.59-1.7,0.75-2.58c0.16-0.88,0.24-1.6,0.24-2.16V21.9z"/>
</g>
</svg>
