<?xml version="1.0" encoding="utf-8"?>
<!-- Generator: Adobe Illustrator 25.4.1, SVG Export Plug-In . SVG Version: 6.00 Build 0)  -->
<svg version="1.1" id="Capa_1" xmlns="http://www.w3.org/2000/svg" xmlns:xlink="http://www.w3.org/1999/xlink" x="0px" y="0px"
	 viewBox="0 0 232.88 73.97" style="enable-background:new 0 0 232.88 73.97;" xml:space="preserve">
<g>
	<path d="M49.59,30.44c0,2.2-0.37,4.33-1.11,6.39c-0.74,2.06-1.75,3.89-3.03,5.49c-1.28,1.6-2.77,2.89-4.47,3.87
		c-1.7,0.98-3.51,1.47-5.43,1.47c-0.48,0-0.96-0.13-1.44-0.39c-0.48-0.26-0.98-0.55-1.5-0.87l-0.3-0.18
		c-0.08,0.96-0.17,2.13-0.27,3.51c-0.1,1.38-0.15,2.91-0.15,4.59c0,0.28,0,0.52,0,0.72c0,0.2,0.01,0.38,0.03,0.54
		c0.02,0.16,0.03,0.32,0.03,0.48c0,0.16,0,0.38,0,0.66c0,0.44,0.11,0.88,0.33,1.32c0.22,0.44,0.33,0.7,0.33,0.78
		c0,0.36-0.24,0.57-0.72,0.63c-0.48,0.06-0.78,0.09-0.9,0.09c-1.04,0-1.85-0.16-2.43-0.48c-0.58-0.32-1.01-1-1.29-2.04
		c-0.28-1.04-0.45-2.55-0.51-4.53s-0.09-4.61-0.09-7.89c0-2.76,0.06-5.42,0.18-7.98c0.12-2.56,0.27-4.89,0.45-6.99
		c0.18-2.1,0.36-3.92,0.54-5.46c0.18-1.54,0.33-2.69,0.45-3.45c-0.48,0.08-1.11,0.25-1.89,0.51c-0.78,0.26-1.61,0.57-2.49,0.93
		c-0.88,0.36-1.78,0.78-2.7,1.26c-0.92,0.48-1.75,0.98-2.49,1.5c-0.74,0.52-1.34,1.05-1.8,1.59c-0.46,0.54-0.69,1.07-0.69,1.59
		l1.02,3.36c0,0.32-0.06,0.73-0.18,1.23c-0.12,0.5-0.46,0.75-1.02,0.75c-0.8,0-1.49-0.15-2.07-0.45c-0.58-0.3-1.06-0.68-1.44-1.14
		c-0.38-0.46-0.67-0.95-0.87-1.47c-0.2-0.52-0.3-1-0.3-1.44c0-1.24,0.43-2.4,1.29-3.48c0.86-1.08,1.98-2.06,3.36-2.94
		c1.38-0.88,2.95-1.68,4.71-2.4c1.76-0.72,3.54-1.32,5.34-1.8c1.8-0.48,3.53-0.85,5.19-1.11c1.66-0.26,3.09-0.39,4.29-0.39
		c1.4,0,2.79,0.09,4.17,0.27s2.75,0.61,4.11,1.29c1.44,0.72,2.55,1.72,3.33,3c0.78,1.28,1.35,2.56,1.71,3.84
		c0.36,1.28,0.57,2.42,0.63,3.42C49.56,29.64,49.59,30.24,49.59,30.44z M45.39,27.86c0-1.88-0.43-3.35-1.29-4.41
		c-0.86-1.06-1.92-1.85-3.18-2.37c-1.26-0.52-2.59-0.83-3.99-0.93c-1.4-0.1-2.66-0.15-3.78-0.15c-0.24,0-0.65,0.03-1.23,0.09
		c-0.58,0.06-1.33,0.17-2.25,0.33c1.32,0.32,2.26,0.76,2.82,1.32c0.56,0.56,0.82,1.06,0.78,1.5l-0.66,16.98
		c0,1.4,0.12,2.44,0.36,3.12c0.24,0.68,0.92,1.02,2.04,1.02c1.08,0,2.23-0.59,3.45-1.77c1.22-1.18,2.34-2.62,3.36-4.32
		c1.02-1.7,1.87-3.5,2.55-5.4C45.05,30.97,45.39,29.3,45.39,27.86z"/>
	<path d="M66.63,53.54c-0.8-0.8-1.46-2.02-1.98-3.66c-0.12,0.24-0.27,0.76-0.45,1.56c-0.18,0.8-0.45,1.63-0.81,2.49
		c-0.36,0.86-0.83,1.64-1.41,2.34c-0.58,0.7-1.31,1.05-2.19,1.05c-2.56,0-4.32-0.74-5.28-2.22c-0.96-1.48-1.52-3.66-1.68-6.54V34.1
		c0.08-0.28,0.13-0.48,0.15-0.6c0.02-0.12,0.19-0.18,0.51-0.18c0.2,0,0.55,0.04,1.05,0.12c0.5,0.08,1.01,0.19,1.53,0.33
		c0.52,0.14,0.99,0.33,1.41,0.57c0.42,0.24,0.63,0.52,0.63,0.84V45.8c0,0.72,0.01,1.52,0.03,2.4c0.02,0.88,0.08,1.69,0.18,2.43
		c0.1,0.74,0.27,1.36,0.51,1.86c0.24,0.5,0.58,0.75,1.02,0.75c1.16,0,2.06-1.17,2.7-3.51c0.64-2.34,1-6.03,1.08-11.07
		c0-0.32-0.08-0.64-0.24-0.96c-0.16-0.32-0.24-0.7-0.24-1.14c0.08-0.32,0.41-0.52,0.99-0.6c0.58-0.08,1.11-0.12,1.59-0.12
		c1.2,0,2.08,0.12,2.64,0.36c0.56,0.24,0.84,0.96,0.84,2.16c-0.08,0.72-0.15,1.29-0.21,1.71s-0.1,0.8-0.12,1.14
		c-0.02,0.34-0.04,0.7-0.06,1.08c-0.02,0.38-0.03,0.93-0.03,1.65c0,0.92,0.04,1.88,0.12,2.88c0.08,1,0.22,1.92,0.42,2.76
		c0.2,0.84,0.45,1.53,0.75,2.07c0.3,0.54,0.69,0.81,1.17,0.81c0.44,0,0.78-0.13,1.02-0.39c0.24-0.26,0.46-0.55,0.66-0.87
		c0.2-0.32,0.4-0.61,0.6-0.87c0.2-0.26,0.48-0.39,0.84-0.39c0.32,0,0.56,0.11,0.72,0.33c0.16,0.22,0.24,0.43,0.24,0.63
		c0,0.76-0.19,1.4-0.57,1.92c-0.38,0.52-0.84,0.94-1.38,1.26c-0.54,0.32-1.09,0.55-1.65,0.69c-0.56,0.14-1.02,0.21-1.38,0.21
		c-0.68,0-1.26-0.08-1.74-0.24c-0.48-0.16-0.96-0.4-1.44-0.72L66.63,53.54z"/>
	<path d="M91.29,46.82c0,1.08-0.09,2.23-0.27,3.45c-0.18,1.22-0.54,2.34-1.08,3.36s-1.3,1.87-2.28,2.55
		c-0.98,0.68-2.27,1.02-3.87,1.02c-1.44,0-2.49-0.11-3.15-0.33c-0.66-0.22-1.21-0.47-1.65-0.75c-0.4,0.2-0.72,0.36-0.96,0.48
		c-0.24,0.12-0.47,0.23-0.69,0.33c-0.22,0.1-0.39,0.15-0.51,0.15c-0.28,0-0.53-0.1-0.75-0.3c-0.22-0.2-0.39-0.61-0.51-1.23
		c-0.12-0.62-0.21-1.48-0.27-2.58c-0.06-1.1-0.09-2.55-0.09-4.35c0-2.88,0.04-6.84,0.12-11.88c0.08-5.04,0.16-11.54,0.24-19.5
		c0-0.4-0.04-0.64-0.12-0.72c-0.08-0.08-0.12-0.16-0.12-0.24c0-0.24,0.23-0.4,0.69-0.48c0.46-0.08,0.75-0.12,0.87-0.12
		s0.44,0.04,0.96,0.12c0.52,0.08,1.05,0.2,1.59,0.36c0.54,0.16,1.03,0.37,1.47,0.63c0.44,0.26,0.66,0.57,0.66,0.93
		c-0.16,0.48-0.3,0.89-0.42,1.23c-0.12,0.34-0.23,0.66-0.33,0.96c-0.1,0.3-0.15,0.51-0.15,0.63c-0.2,1.52-0.35,2.83-0.45,3.93
		c-0.1,1.1-0.18,2.26-0.24,3.48c-0.06,1.22-0.12,2.63-0.18,4.23c-0.06,1.6-0.15,3.68-0.27,6.24c0.2-0.4,0.39-0.91,0.57-1.53
		c0.18-0.62,0.41-1.23,0.69-1.83c0.28-0.6,0.63-1.12,1.05-1.56c0.42-0.44,0.99-0.66,1.71-0.66c0.32,0,0.77,0.12,1.35,0.36
		c0.58,0.24,1.03,0.4,1.35,0.48c1.12,0.24,2.01,0.87,2.67,1.89s1.17,2.2,1.53,3.54c0.36,1.34,0.59,2.71,0.69,4.11
		C91.24,44.62,91.29,45.82,91.29,46.82z M86.91,45.38c0-0.12-0.01-0.44-0.03-0.96c-0.02-0.52-0.06-1.12-0.12-1.8
		c-0.06-0.68-0.15-1.41-0.27-2.19c-0.12-0.78-0.29-1.49-0.51-2.13c-0.22-0.64-0.49-1.17-0.81-1.59c-0.32-0.42-0.72-0.63-1.2-0.63
		c-0.64,0-1.24,0.56-1.8,1.68c-0.56,1.12-1.05,2.47-1.47,4.05c-0.42,1.58-0.75,3.21-0.99,4.89c-0.24,1.68-0.36,3.06-0.36,4.14
		c0,0.44,0.01,0.91,0.03,1.41c0.02,0.5,0.07,0.97,0.15,1.41c0.48,0.2,0.84,0.37,1.08,0.51c0.24,0.14,0.44,0.26,0.6,0.36
		c0.16,0.1,0.33,0.17,0.51,0.21c0.18,0.04,0.41,0.06,0.69,0.06c1.04,0,1.86-0.41,2.46-1.23c0.6-0.82,1.05-1.76,1.35-2.82
		c0.3-1.06,0.49-2.11,0.57-3.15C86.87,46.56,86.91,45.82,86.91,45.38z"/>
	<path d="M105.87,54.56c0,0.48-0.17,0.9-0.51,1.26s-0.76,0.68-1.26,0.96c-0.5,0.28-1.02,0.49-1.56,0.63
		c-0.54,0.14-0.99,0.21-1.35,0.21c-0.68,0-1.43-0.07-2.25-0.21c-0.82-0.14-1.51-0.43-2.07-0.87c-0.64-0.52-1.17-1.35-1.59-2.49
		s-0.74-2.5-0.96-4.08c-0.22-1.58-0.37-3.34-0.45-5.28c-0.08-1.94-0.12-3.97-0.12-6.09c0-0.88,0.03-1.86,0.09-2.94
		c0.06-1.08,0.13-2.21,0.21-3.39c0.08-1.18,0.18-2.36,0.3-3.54c0.12-1.18,0.24-2.31,0.36-3.39c0.12-0.76,0.26-1.58,0.42-2.46
		c0.16-0.88,0.33-1.72,0.51-2.52c0.18-0.8,0.39-1.52,0.63-2.16c0.24-0.64,0.5-1.1,0.78-1.38c0.32-0.32,0.75-0.53,1.29-0.63
		c0.54-0.1,1.03-0.15,1.47-0.15c0.92,0,1.66,0.24,2.22,0.72c0.56,0.48,0.99,1.13,1.29,1.95c0.3,0.82,0.5,1.76,0.6,2.82
		c0.1,1.06,0.15,2.19,0.15,3.39c0,1.84-0.06,3.83-0.18,5.97c-0.12,2.14-0.37,4.29-0.75,6.45c-0.38,2.16-0.92,4.26-1.62,6.3
		c-0.7,2.04-1.63,3.9-2.79,5.58c0.04,0.56,0.11,1.21,0.21,1.95c0.1,0.74,0.25,1.43,0.45,2.07c0.2,0.64,0.46,1.18,0.78,1.62
		c0.32,0.44,0.74,0.66,1.26,0.66c0.48,0,0.86-0.11,1.14-0.33c0.28-0.22,0.53-0.47,0.75-0.75c0.22-0.28,0.44-0.53,0.66-0.75
		c0.22-0.22,0.51-0.33,0.87-0.33c0.4,0,0.67,0.12,0.81,0.36C105.8,53.96,105.87,54.24,105.87,54.56z M101.37,26.36
		c0-0.4-0.01-0.88-0.03-1.44c-0.02-0.56-0.08-1.11-0.18-1.65c-0.1-0.54-0.23-1-0.39-1.38c-0.16-0.38-0.38-0.57-0.66-0.57
		c-0.4,0-0.72,0.56-0.96,1.68c-0.24,1.12-0.43,2.59-0.57,4.41c-0.14,1.82-0.24,3.88-0.3,6.18c-0.06,2.3-0.09,4.63-0.09,6.99
		c0,0.68,0,1.39,0,2.13c0,0.74,0.04,1.39,0.12,1.95c1.32-3.16,2.16-6.22,2.52-9.18C101.19,32.52,101.37,29.48,101.37,26.36z"/>
	<path d="M113.67,28.52c0,0.28-0.14,0.51-0.42,0.69c-0.28,0.18-0.59,0.31-0.93,0.39c-0.34,0.08-0.67,0.14-0.99,0.18
		c-0.32,0.04-0.52,0.06-0.6,0.06c-0.84,0-1.67-0.24-2.49-0.72c-0.82-0.48-1.57-1.24-2.25-2.28c-0.08-0.12-0.2-0.28-0.36-0.48
		c-0.16-0.2-0.24-0.34-0.24-0.42c0-0.2,0.15-0.38,0.45-0.54c0.3-0.16,0.64-0.32,1.02-0.48c0.38-0.16,0.74-0.28,1.08-0.36
		c0.34-0.08,0.57-0.12,0.69-0.12c0.8,0,1.59,0.2,2.37,0.6c0.78,0.4,1.41,1.14,1.89,2.22c0.08,0.12,0.23,0.33,0.45,0.63
		C113.56,28.19,113.67,28.4,113.67,28.52z M119.79,46.7c-0.12,0.96-0.34,1.96-0.66,3c-0.32,1.04-0.77,2.01-1.35,2.91
		s-1.31,1.64-2.19,2.22c-0.88,0.58-1.96,0.87-3.24,0.87c-1,0-2.02-0.34-3.06-1.02c-1.04-0.72-1.75-1.66-2.13-2.82
		c-0.38-1.16-0.57-2.28-0.57-3.36c0-0.32,0.02-0.8,0.06-1.44c0.04-0.64,0.06-1.42,0.06-2.34v-6.6c0-0.32-0.01-0.66-0.03-1.02
		c-0.02-0.36-0.07-0.7-0.15-1.02c-0.04-0.16-0.11-0.34-0.21-0.54c-0.1-0.2-0.15-0.34-0.15-0.42c0-0.16,0.1-0.29,0.3-0.39
		c0.2-0.1,0.42-0.17,0.66-0.21c0.24-0.04,0.58-0.06,1.02-0.06c0.12,0,0.4,0.01,0.84,0.03c0.44,0.02,0.9,0.09,1.38,0.21
		c0.48,0.12,0.91,0.31,1.29,0.57c0.38,0.26,0.57,0.63,0.57,1.11c0.04,0.12-0.03,0.34-0.21,0.66c-0.18,0.32-0.35,0.88-0.51,1.68
		c-0.04,0.32-0.08,0.61-0.12,0.87c-0.04,0.26-0.08,0.55-0.12,0.87c-0.04,0.32-0.08,0.71-0.12,1.17c-0.04,0.46-0.08,1.05-0.12,1.77
		V47c0,0.64,0.02,1.29,0.06,1.95c0.04,0.66,0.13,1.26,0.27,1.8c0.14,0.54,0.37,0.98,0.69,1.32c0.32,0.34,0.74,0.51,1.26,0.51
		c0.76,0,1.36-0.22,1.8-0.66c0.44-0.44,0.78-0.82,1.02-1.14c0.44-0.6,0.78-1.35,1.02-2.25s0.46-1.83,0.66-2.79l0.12-0.6
		c0.12-0.6,0.48-0.9,1.08-0.9c0.6,0,0.9,0.42,0.9,1.26v0.3L119.79,46.7z"/>
	<path d="M135.87,50.9c-0.96,2.28-2.19,3.93-3.69,4.95s-3.27,1.53-5.31,1.53c-0.2,0-0.39,0-0.57,0s-0.37-0.02-0.57-0.06
		c-1-0.12-1.96-0.43-2.88-0.93c-0.92-0.5-1.72-1.2-2.4-2.1c-0.68-0.9-1.22-2.01-1.62-3.31c-0.4-1.3-0.6-2.8-0.6-4.48
		c0-1.6,0.21-3.29,0.63-5.05c0.42-1.76,1.27-3.37,2.55-4.81c1.12-1.28,2.43-2.31,3.93-3.07c1.5-0.76,3.03-1.14,4.59-1.14
		c0.76,0,1.45,0.11,2.07,0.34c0.62,0.22,0.97,0.5,1.05,0.82c0.08,0.45,0.13,1.01,0.15,1.68c0.02,0.67,0.03,1.54,0.03,2.62
		c0,0.92-0.07,1.6-0.21,2.04c-0.14,0.44-0.43,0.66-0.87,0.66c-0.48-0.04-0.82-0.29-1.02-0.75c-0.2-0.46-0.4-0.96-0.6-1.5
		c-0.2-0.54-0.46-1.04-0.78-1.5c-0.32-0.46-0.84-0.71-1.56-0.75c-1.04,0-1.9,0.4-2.58,1.2c-0.68,0.8-1.21,1.74-1.59,2.82
		c-0.38,1.08-0.64,2.16-0.78,3.24c-0.14,1.08-0.21,1.92-0.21,2.52c0,2.32,0.35,4.31,1.05,5.97c0.7,1.66,1.95,2.57,3.75,2.73
		l0.66,0.06c1.24,0,2.24-0.31,3-0.93c0.76-0.62,1.37-1.3,1.83-2.04c0.46-0.74,0.82-1.42,1.08-2.04c0.26-0.62,0.53-0.93,0.81-0.93
		h0.18c0.52,0.04,0.78,0.38,0.78,1.02C136.17,49.98,136.07,50.38,135.87,50.9z"/>
	<path d="M159.75,49.76c-0.08,0.56-0.28,1.22-0.6,1.98c-0.32,0.76-0.73,1.49-1.23,2.19c-0.5,0.7-1.08,1.29-1.74,1.77
		s-1.39,0.72-2.19,0.72c-1.2,0-2.25-0.46-3.15-1.38c-0.9-0.92-1.45-2.22-1.65-3.9c-0.24,0.64-0.52,1.38-0.84,2.22
		s-0.72,1.62-1.2,2.34c-0.48,0.72-1.03,1.33-1.65,1.83c-0.62,0.5-1.35,0.75-2.19,0.75c-0.24,0-0.42-0.02-0.54-0.06
		c-0.12-0.04-0.25-0.09-0.39-0.15c-0.14-0.06-0.3-0.11-0.48-0.15c-0.18-0.04-0.43-0.06-0.75-0.06c-0.96,0-1.77-0.31-2.43-0.93
		c-0.66-0.62-1.19-1.41-1.59-2.37c-0.4-0.96-0.69-2.01-0.87-3.15c-0.18-1.14-0.27-2.21-0.27-3.21c0-2.4,0.13-4.68,0.39-6.84
		c0.26-2.16,0.69-4.07,1.29-5.73c0.6-1.66,1.38-2.98,2.34-3.96c0.96-0.98,2.12-1.47,3.48-1.47c0.8,0,1.41,0.07,1.83,0.21
		c0.42,0.14,0.81,0.3,1.17,0.48c0.36,0.18,0.75,0.37,1.17,0.57c0.42,0.2,1.01,0.36,1.77,0.48c0.84,0.48,1.43,1.05,1.77,1.71
		c0.34,0.66,0.56,1.37,0.66,2.13c0.1,0.76,0.13,1.55,0.09,2.37c-0.04,0.82,0,1.63,0.12,2.43c0,0.04,0.09,0.1,0.27,0.18
		c0.18,0.08,0.39,0.17,0.63,0.27c0.24,0.1,0.45,0.24,0.63,0.42c0.18,0.18,0.27,0.41,0.27,0.69v0.24c-0.4,1.04-0.64,1.96-0.72,2.76
		c-0.08,0.8-0.12,1.76-0.12,2.88c0,0.56,0.03,1.17,0.09,1.83c0.06,0.66,0.16,1.28,0.3,1.86c0.14,0.58,0.35,1.06,0.63,1.44
		c0.28,0.38,0.64,0.57,1.08,0.57c0.48,0,0.91-0.24,1.29-0.72c0.38-0.48,0.7-1.03,0.96-1.65c0.26-0.62,0.48-1.25,0.66-1.89
		c0.18-0.64,0.29-1.12,0.33-1.44c0.08-0.48,0.28-0.72,0.6-0.72c0.2,0,0.39,0.11,0.57,0.33c0.18,0.22,0.27,0.61,0.27,1.17
		c0,0.16,0,0.31,0,0.45C159.81,49.39,159.79,49.56,159.75,49.76z M148.65,40.04c0-0.44-0.04-0.96-0.12-1.56
		c-0.08-0.6-0.22-1.16-0.42-1.68c-0.2-0.52-0.5-0.96-0.9-1.32c-0.4-0.36-0.94-0.54-1.62-0.54c-1.12,0-2.03,0.51-2.73,1.53
		c-0.7,1.02-1.25,2.22-1.65,3.6c-0.4,1.38-0.66,2.8-0.78,4.26c-0.12,1.46-0.18,2.61-0.18,3.45c0,0.64,0.03,1.41,0.09,2.31
		c0.06,0.9,0.17,1.75,0.33,2.55c0.16,0.8,0.39,1.48,0.69,2.04c0.3,0.56,0.69,0.84,1.17,0.84c1.16,0,2.05-0.45,2.67-1.35
		c0.62-0.9,1.09-2.02,1.41-3.36c0.32-1.34,0.55-2.78,0.69-4.32c0.14-1.54,0.27-2.95,0.39-4.23c0.08-0.68,0.26-1.11,0.54-1.29
		c0.28-0.18,0.42-0.31,0.42-0.39V40.04z"/>
	<path d="M175.77,50.9c-0.96,2.28-2.19,3.93-3.69,4.95s-3.27,1.53-5.31,1.53c-0.2,0-0.39,0-0.57,0s-0.37-0.02-0.57-0.06
		c-1-0.12-1.96-0.43-2.88-0.93c-0.92-0.5-1.72-1.2-2.4-2.1c-0.68-0.9-1.22-2.01-1.62-3.31c-0.4-1.3-0.6-2.8-0.6-4.48
		c0-1.6,0.21-3.29,0.63-5.05c0.42-1.76,1.27-3.37,2.55-4.81c1.12-1.28,2.43-2.31,3.93-3.07c1.5-0.76,3.03-1.14,4.59-1.14
		c0.76,0,1.45,0.11,2.07,0.34c0.62,0.22,0.97,0.5,1.05,0.82c0.08,0.45,0.13,1.01,0.15,1.68c0.02,0.67,0.03,1.54,0.03,2.62
		c0,0.92-0.07,1.6-0.21,2.04c-0.14,0.44-0.43,0.66-0.87,0.66c-0.48-0.04-0.82-0.29-1.02-0.75c-0.2-0.46-0.4-0.96-0.6-1.5
		c-0.2-0.54-0.46-1.04-0.78-1.5c-0.32-0.46-0.84-0.71-1.56-0.75c-1.04,0-1.9,0.4-2.58,1.2c-0.68,0.8-1.21,1.74-1.59,2.82
		c-0.38,1.08-0.64,2.16-0.78,3.24c-0.14,1.08-0.21,1.92-0.21,2.52c0,2.32,0.35,4.31,1.05,5.97c0.7,1.66,1.95,2.57,3.75,2.73
		l0.66,0.06c1.24,0,2.24-0.31,3-0.93c0.76-0.62,1.37-1.3,1.83-2.04c0.46-0.74,0.82-1.42,1.08-2.04c0.26-0.62,0.53-0.93,0.81-0.93
		h0.18c0.52,0.04,0.78,0.38,0.78,1.02C176.07,49.98,175.97,50.38,175.77,50.9z"/>
	<path d="M183.93,28.52c0,0.28-0.14,0.51-0.42,0.69c-0.28,0.18-0.59,0.31-0.93,0.39c-0.34,0.08-0.67,0.14-0.99,0.18
		c-0.32,0.04-0.52,0.06-0.6,0.06c-0.84,0-1.67-0.24-2.49-0.72c-0.82-0.48-1.57-1.24-2.25-2.28c-0.08-0.12-0.2-0.28-0.36-0.48
		c-0.16-0.2-0.24-0.34-0.24-0.42c0-0.2,0.15-0.38,0.45-0.54c0.3-0.16,0.64-0.32,1.02-0.48c0.38-0.16,0.74-0.28,1.08-0.36
		c0.34-0.08,0.57-0.12,0.69-0.12c0.8,0,1.59,0.2,2.37,0.6c0.78,0.4,1.41,1.14,1.89,2.22c0.08,0.12,0.23,0.33,0.45,0.63
		C183.82,28.19,183.93,28.4,183.93,28.52z M190.05,46.7c-0.12,0.96-0.34,1.96-0.66,3c-0.32,1.04-0.77,2.01-1.35,2.91
		s-1.31,1.64-2.19,2.22c-0.88,0.58-1.96,0.87-3.24,0.87c-1,0-2.02-0.34-3.06-1.02c-1.04-0.72-1.75-1.66-2.13-2.82
		c-0.38-1.16-0.57-2.28-0.57-3.36c0-0.32,0.02-0.8,0.06-1.44c0.04-0.64,0.06-1.42,0.06-2.34v-6.6c0-0.32-0.01-0.66-0.03-1.02
		c-0.02-0.36-0.07-0.7-0.15-1.02c-0.04-0.16-0.11-0.34-0.21-0.54c-0.1-0.2-0.15-0.34-0.15-0.42c0-0.16,0.1-0.29,0.3-0.39
		c0.2-0.1,0.42-0.17,0.66-0.21c0.24-0.04,0.58-0.06,1.02-0.06c0.12,0,0.4,0.01,0.84,0.03c0.44,0.02,0.9,0.09,1.38,0.21
		c0.48,0.12,0.91,0.31,1.29,0.57c0.38,0.26,0.57,0.63,0.57,1.11c0.04,0.12-0.03,0.34-0.21,0.66c-0.18,0.32-0.35,0.88-0.51,1.68
		c-0.04,0.32-0.08,0.61-0.12,0.87c-0.04,0.26-0.08,0.55-0.12,0.87c-0.04,0.32-0.08,0.71-0.12,1.17c-0.04,0.46-0.08,1.05-0.12,1.77
		V47c0,0.64,0.02,1.29,0.06,1.95c0.04,0.66,0.13,1.26,0.27,1.8c0.14,0.54,0.37,0.98,0.69,1.32c0.32,0.34,0.74,0.51,1.26,0.51
		c0.76,0,1.36-0.22,1.8-0.66c0.44-0.44,0.78-0.82,1.02-1.14c0.44-0.6,0.78-1.35,1.02-2.25s0.46-1.83,0.66-2.79l0.12-0.6
		c0.12-0.6,0.48-0.9,1.08-0.9c0.6,0,0.9,0.42,0.9,1.26v0.3L190.05,46.7z"/>
	<path d="M208.17,39.18c0.16-0.28,0.44-0.42,0.84-0.42c0.2,0,0.34,0.12,0.42,0.36c0.08,0.24,0.12,0.44,0.12,0.6
		c-0.04,1.24-0.31,2.34-0.81,3.32c-0.5,0.98-1.03,1.83-1.59,2.54c-0.32,0.44-0.67,0.84-1.05,1.2c-0.38,0.36-0.77,0.7-1.17,1.02
		c-0.04,0.68-0.07,1.15-0.09,1.41c-0.02,0.26-0.05,0.47-0.09,0.63c-0.08,0.6-0.28,1.36-0.6,2.28c-0.32,0.92-0.77,1.82-1.35,2.69
		c-0.58,0.88-1.28,1.63-2.1,2.25c-0.82,0.62-1.77,0.93-2.85,0.93c-0.36,0-0.77-0.04-1.23-0.12c-0.46-0.08-0.93-0.19-1.41-0.33
		c-0.48-0.14-0.94-0.3-1.38-0.48c-0.44-0.18-0.82-0.37-1.14-0.57c-1-0.56-1.82-1.22-2.46-1.98c-0.64-0.76-1.13-1.57-1.47-2.42
		c-0.34-0.86-0.57-1.74-0.69-2.63c-0.12-0.9-0.18-1.77-0.18-2.6c0-1.44,0.15-2.89,0.45-4.37c0.3-1.48,0.67-2.89,1.11-4.25
		c0.44-1.36,0.94-2.57,1.5-3.65s1.1-1.92,1.62-2.51c0.52-0.56,1.1-0.95,1.74-1.17c0.64-0.22,1.22-0.33,1.74-0.33
		c0.64,0,1.28,0.16,1.92,0.48c0.64,0.32,1.26,0.72,1.86,1.2c0.6,0.48,1.19,1.03,1.77,1.65c0.58,0.62,1.13,1.23,1.65,1.83
		c0.4,0.44,0.7,1.15,0.9,2.13c0.2,0.98,0.36,1.97,0.48,2.96c0.08,0.56,0.14,1.16,0.18,1.8c0.04,0.64,0.06,1.3,0.06,1.98
		c0.6-0.48,1.08-0.99,1.44-1.53c0.36-0.54,0.65-1.05,0.87-1.53c0.22-0.48,0.4-0.93,0.54-1.35
		C207.86,39.75,208.01,39.42,208.17,39.18z M194.25,28.94c-0.2,0.32-0.5,0.7-0.9,1.14c-0.4,0.44-0.72,0.66-0.96,0.66
		c-0.12,0-0.22-0.04-0.3-0.12c-0.16-0.28-0.29-0.47-0.39-0.57c-0.1-0.1-0.18-0.18-0.24-0.24c-0.06-0.06-0.1-0.11-0.12-0.15
		c-0.02-0.04-0.03-0.14-0.03-0.3v-0.72c0-0.32,0.04-0.57,0.12-0.75c0.08-0.18,0.3-0.43,0.66-0.75c0.84-0.8,1.74-1.6,2.7-2.4
		c0.96-0.8,1.87-1.53,2.73-2.19c0.86-0.66,1.64-1.2,2.34-1.62c0.7-0.42,1.23-0.63,1.59-0.63c0.28,0,0.48,0.12,0.6,0.36
		c0.12,0.24,0.18,0.92,0.18,2.04c0,0.64-0.07,1.09-0.21,1.35c-0.14,0.26-0.34,0.45-0.6,0.57c-0.26,0.12-0.57,0.22-0.93,0.3
		c-0.36,0.08-0.78,0.26-1.26,0.54L194.25,28.94z M201.09,49.22c-0.48,0.32-1.14,0.56-1.98,0.72c-0.84,0.16-1.54,0.24-2.1,0.24
		c-1.08,0-1.91-0.08-2.49-0.24c-0.58-0.16-1.21-0.48-1.89-0.96l-0.06,1.26c0,0.44,0.06,0.9,0.18,1.38c0.12,0.48,0.31,0.92,0.57,1.32
		c0.26,0.4,0.63,0.73,1.11,0.99c0.48,0.26,1.08,0.39,1.8,0.39c0.88,0,1.63-0.17,2.25-0.51c0.62-0.34,1.12-0.77,1.5-1.29
		c0.38-0.52,0.66-1.08,0.84-1.68C201,50.24,201.09,49.7,201.09,49.22z M201.36,43.22c-0.02-0.56-0.06-1.22-0.12-1.98
		c-0.06-0.76-0.16-1.55-0.3-2.37c-0.14-0.82-0.34-1.57-0.6-2.25c-0.26-0.68-0.59-1.25-0.99-1.71c-0.4-0.46-0.9-0.69-1.5-0.69
		s-1.18,0.24-1.74,0.72c-0.56,0.48-1.06,1.1-1.5,1.86c-0.44,0.76-0.79,1.62-1.05,2.58c-0.26,0.96-0.39,1.9-0.39,2.82
		c0,1.6,0.32,2.77,0.96,3.51c0.64,0.74,1.74,1.11,3.3,1.11c1.16,0,2.11-0.18,2.85-0.54s1.11-0.64,1.11-0.84V44.3
		C201.39,44.14,201.38,43.78,201.36,43.22z"/>
	<path d="M217.11,43.22c-0.6,0.84-1.09,1.77-1.47,2.79c-0.38,1.02-0.71,2.08-0.99,3.18c-0.28,1.1-0.51,2.2-0.69,3.3
		c-0.18,1.1-0.37,2.15-0.57,3.15c-0.08,0.24-0.39,0.4-0.93,0.48c-0.54,0.08-0.93,0.12-1.17,0.12c-0.72,0-1.31-0.04-1.77-0.12
		c-0.46-0.08-0.81-0.27-1.05-0.57s-0.42-0.76-0.54-1.38c-0.12-0.62-0.22-1.45-0.3-2.49l0.78-17.82c0-0.52,0.28-0.78,0.84-0.78
		c0.2,0,0.48,0.03,0.84,0.09s0.74,0.15,1.14,0.27c0.4,0.12,0.74,0.27,1.02,0.45c0.28,0.18,0.42,0.39,0.42,0.63V46.7
		c0.04-0.04,0.1-0.2,0.18-0.48c0.28-0.72,0.62-1.61,1.02-2.67c0.4-1.06,0.84-2.07,1.32-3.03c0.48-0.96,0.99-1.78,1.53-2.46
		c0.54-0.68,1.09-1.02,1.65-1.02c0.72,0,1.27,0.17,1.65,0.51c0.38,0.34,0.67,0.77,0.87,1.29c0.2,0.52,0.32,1.08,0.36,1.68
		c0.04,0.6,0.06,1.18,0.06,1.74c0,0.4-0.04,1.06-0.12,1.98c-0.08,0.92-0.12,2.3-0.12,4.14c0,1.04,0.1,1.98,0.3,2.82
		c0.2,0.84,0.6,1.26,1.2,1.26c0.44,0,0.84-0.2,1.2-0.6c0.36-0.4,0.69-0.9,0.99-1.5s0.55-1.24,0.75-1.92
		c0.2-0.68,0.32-1.32,0.36-1.92c0.04-0.76,0.34-1.14,0.9-1.14c0.36,0,0.6,0.12,0.72,0.36c0.12,0.24,0.18,0.52,0.18,0.84v0.12
		c-0.04,0.8-0.19,1.7-0.45,2.7c-0.26,1-0.64,1.94-1.14,2.82c-0.5,0.88-1.15,1.62-1.95,2.22c-0.8,0.6-1.78,0.9-2.94,0.9
		c-1.8,0-2.95-0.65-3.45-1.95c-0.5-1.3-0.75-3.23-0.75-5.79L217.11,43.22z"/>
</g>
<g>
</g>
<g>
</g>
<g>
</g>
<g>
</g>
<g>
</g>
<g>
</g>
</svg>
